<svg width="872" height="117" xmlns="http://www.w3.org/2000/svg" xmlns:xlink="http://www.w3.org/1999/xlink" xml:space="preserve" overflow="hidden"><defs><clipPath id="clip0"><rect x="44" y="243" width="872" height="117"/></clipPath></defs><g clip-path="url(#clip0)" transform="translate(-44 -243)"><path d="M842.118 592.186 822.478 592.186 797.969 516.708 797.642 516.708 772.975 592.186 753.493 592.186 719.249 484.407 739.702 484.407 763.725 562.969 764.042 562.969 789.691 484.407 806.545 484.407 832.055 563.137 832.382 563.137 856.603 484.407 876.531 484.407Z" transform="matrix(1 0 0 1.00062 -471.776 -234.205)"/><path d="M939.17 592.186 938.684 581.28 938.357 581.28C932.835 589.073 923.257 593.782 910.924 593.782 889.182 593.782 873.249 577.226 873.249 554.125 873.249 531.024 889.162 514.358 910.924 514.358 923.257 514.358 932.676 519.068 938.198 526.86L938.516 526.86 939.17 515.955 953.457 515.955 953.457 592.186ZM936.731 554.214C936.731 539.769 927.322 529.864 913.69 529.864 900.058 529.864 890.639 539.779 890.639 554.214 890.639 568.332 900.048 578.395 913.69 578.395 927.332 578.395 936.731 568.322 936.731 554.214Z" transform="matrix(1 0 0 1.00062 -471.776 -234.205)"/><path d="M1018.7 591.046C1015.13 592.841 1010.42 593.812 1004.42 593.812 987.215 593.812 977.965 584.066 977.965 566.052L977.965 530.995 964.491 530.995 964.491 516.064 978.451 516.064 980.88 495.124 995.166 495.124 995.166 516.064 1018.38 516.064 1018.38 530.995 995.166 530.995 995.166 565.408C995.166 573.686 999.549 578.554 1007.06 578.554 1011.2 578.749 1015.2 577.079 1017.97 574.003L1018.78 574.003Z" transform="matrix(1 0 0 1.00062 -471.776 -234.205)"/><path d="M1046.61 559.399C1048.72 571.574 1059.11 578.713 1074.21 578.713 1085.41 578.713 1094.83 575.302 1101.64 568.798L1102.45 568.798 1102.45 585.831C1095.96 590.868 1085.6 593.763 1073.56 593.763 1046.94 593.763 1029.08 577.85 1029.08 554.105 1029.08 530.737 1045.48 514.339 1068.74 514.339 1092.28 514.339 1107.21 528.625 1107.21 550.863L1107.21 559.3ZM1046.61 546.58 1091.23 546.58C1089.76 536.19 1081 529.537 1069.15 529.537 1058.3 529.537 1048.72 536.368 1046.61 546.58Z" transform="matrix(1 0 0 1.00062 -471.776 -234.205)"/><path d="M1172.87 517.362 1172.87 534.385 1172.06 534.385C1168.52 531.978 1164.33 530.731 1160.04 530.816 1146.41 530.816 1139.76 539.898 1139.76 558.408L1139.76 592.117 1122.56 592.117 1122.56 516.064 1137 516.064 1137.65 527.753 1137.97 527.753C1142.36 518.979 1150.15 514.438 1161.51 514.438 1165.5 514.321 1169.43 515.335 1172.87 517.362Z" transform="matrix(1 0 0 1.00062 -471.776 -234.205)"/><path d="M1184.77 478.567 1201.97 478.567 1201.97 592.186 1184.77 592.186Z" transform="matrix(1 0 0 1.00062 -471.776 -234.205)"/><path d="M1241.71 492.358C1241.71 498.852 1237.33 503.264 1230.67 503.264 1224.18 503.264 1219.77 498.882 1219.77 492.358 1219.77 485.835 1224.15 481.324 1230.67 481.324 1237.32 481.324 1241.71 485.874 1241.71 492.358ZM1239.3 516.064 1239.3 592.186 1222.1 592.186 1222.1 516.064Z" transform="matrix(1 0 0 1.00062 -471.776 -234.205)"/><path d="M1307.44 479.708 1307.44 495.769 1306.63 495.769C1303.05 493.479 1298.87 492.292 1294.62 492.358 1286.5 492.358 1282.12 497.236 1282.12 506.001L1282.12 516.064 1305.33 516.064 1305.33 530.995 1282.12 530.995 1282.12 592.186 1264.92 592.186 1264.92 530.995 1251.44 530.995 1251.44 516.064 1264.92 516.064 1264.92 505.158C1264.92 487.143 1274.48 476.912 1292.02 476.912 1298.68 476.941 1303.87 477.873 1307.44 479.708Z" transform="matrix(1 0 0 1.00062 -471.776 -234.205)"/><path d="M1327.24 559.399C1329.35 571.574 1339.74 578.713 1354.83 578.713 1366.03 578.713 1375.44 575.302 1382.26 568.798L1383.08 568.798 1383.08 585.831C1376.58 590.868 1366.22 593.763 1354.19 593.763 1327.57 593.763 1309.71 577.85 1309.71 554.105 1309.71 530.737 1326.1 514.339 1349.37 514.339 1372.89 514.339 1387.84 528.625 1387.84 550.863L1387.84 559.3ZM1327.24 546.58 1371.85 546.58C1370.4 536.19 1361.63 529.537 1349.78 529.537 1338.93 529.537 1329.35 536.368 1327.24 546.58Z" transform="matrix(1 0 0 1.00062 -471.776 -234.205)"/><path d="M617.28 592.88C585.293 592.842 559.373 566.917 559.34 534.931L577.523 534.931C577.523 556.888 595.322 574.687 617.28 574.687 639.237 574.687 657.036 556.888 657.036 534.931L675.229 534.931C675.191 566.919 649.268 592.842 617.28 592.88Z" fill="#1B82C7" transform="matrix(1 0 0 1.00062 -471.776 -234.205)"/><path d="M573.726 476.941C541.737 476.98 515.815 502.902 515.776 534.891L533.969 534.891C533.969 512.934 551.768 495.134 573.726 495.134 595.683 495.134 613.482 512.934 613.482 534.891L631.665 534.891C631.633 502.904 605.712 476.98 573.726 476.941Z" fill="#1862AE" transform="matrix(1 0 0 1.00062 -471.776 -234.205)"/></g></svg>